<mxfile host="app.diagrams.net" agent="Mozilla/5.0 (Windows NT 10.0; Win64; x64) AppleWebKit/537.36 (KHTML, like Gecko) Chrome/135.0.0.0 Safari/537.36" version="26.2.14">
  <diagram name="Página-1" id="LUSWT5xvh4WN959Qqr1r">
    <mxGraphModel grid="1" page="1" gridSize="10" guides="1" tooltips="1" connect="1" arrows="1" fold="1" pageScale="1" pageWidth="827" pageHeight="1169" background="light-dark(#FFFFFF,transparent)" math="0" shadow="0">
      <root>
        <mxCell id="0" />
        <mxCell id="1" parent="0" />
        <mxCell id="_BqXV4BA8Faw6ntWkrdX-2" style="edgeStyle=orthogonalEdgeStyle;rounded=0;orthogonalLoop=1;jettySize=auto;html=1;" edge="1" parent="1" target="_BqXV4BA8Faw6ntWkrdX-10">
          <mxGeometry relative="1" as="geometry">
            <mxPoint x="150" y="60" as="sourcePoint" />
            <mxPoint x="250" y="175" as="targetPoint" />
            <Array as="points">
              <mxPoint x="150" y="70" />
              <mxPoint x="210" y="70" />
              <mxPoint x="210" y="175" />
            </Array>
          </mxGeometry>
        </mxCell>
        <mxCell id="_BqXV4BA8Faw6ntWkrdX-3" value="Ler sensor vazão" style="rounded=1;whiteSpace=wrap;html=1;fillColor=#008a00;fontColor=#ffffff;strokeColor=#005700;" vertex="1" parent="1">
          <mxGeometry x="30" y="40" width="120" height="60" as="geometry" />
        </mxCell>
        <mxCell id="_BqXV4BA8Faw6ntWkrdX-4" style="edgeStyle=orthogonalEdgeStyle;rounded=0;orthogonalLoop=1;jettySize=auto;html=1;" edge="1" parent="1" source="_BqXV4BA8Faw6ntWkrdX-5" target="_BqXV4BA8Faw6ntWkrdX-10">
          <mxGeometry relative="1" as="geometry">
            <Array as="points">
              <mxPoint x="200" y="150" />
              <mxPoint x="200" y="185" />
            </Array>
          </mxGeometry>
        </mxCell>
        <mxCell id="_BqXV4BA8Faw6ntWkrdX-5" value="Ler sensor de condutividade elétrica" style="rounded=1;whiteSpace=wrap;html=1;fillColor=#008a00;fontColor=#ffffff;strokeColor=#005700;" vertex="1" parent="1">
          <mxGeometry x="30" y="120" width="120" height="60" as="geometry" />
        </mxCell>
        <mxCell id="_BqXV4BA8Faw6ntWkrdX-6" style="edgeStyle=orthogonalEdgeStyle;rounded=0;orthogonalLoop=1;jettySize=auto;html=1;entryX=0;entryY=0.75;entryDx=0;entryDy=0;" edge="1" parent="1" source="_BqXV4BA8Faw6ntWkrdX-7" target="_BqXV4BA8Faw6ntWkrdX-10">
          <mxGeometry relative="1" as="geometry">
            <Array as="points">
              <mxPoint x="200" y="230" />
              <mxPoint x="200" y="207" />
            </Array>
          </mxGeometry>
        </mxCell>
        <mxCell id="_BqXV4BA8Faw6ntWkrdX-7" value="Ler sensor de temperatura" style="rounded=1;whiteSpace=wrap;html=1;fillColor=#008a00;fontColor=#ffffff;strokeColor=#005700;" vertex="1" parent="1">
          <mxGeometry x="30" y="200" width="120" height="60" as="geometry" />
        </mxCell>
        <mxCell id="_BqXV4BA8Faw6ntWkrdX-8" value="Ler sensor de umidade" style="rounded=1;whiteSpace=wrap;html=1;fillColor=#008a00;fontColor=#ffffff;strokeColor=#005700;" vertex="1" parent="1">
          <mxGeometry x="30" y="280" width="120" height="60" as="geometry" />
        </mxCell>
        <mxCell id="_BqXV4BA8Faw6ntWkrdX-9" style="edgeStyle=orthogonalEdgeStyle;rounded=0;orthogonalLoop=1;jettySize=auto;html=1;entryX=0.5;entryY=1;entryDx=0;entryDy=0;" edge="1" parent="1" source="_BqXV4BA8Faw6ntWkrdX-10" target="_BqXV4BA8Faw6ntWkrdX-11">
          <mxGeometry relative="1" as="geometry">
            <mxPoint x="320" y="90" as="targetPoint" />
          </mxGeometry>
        </mxCell>
        <mxCell id="_BqXV4BA8Faw6ntWkrdX-10" value="Microcontrolador" style="shape=parallelogram;perimeter=parallelogramPerimeter;whiteSpace=wrap;html=1;fixedSize=1;fillColor=#fa6800;strokeColor=#C73500;fontColor=#000000;" vertex="1" parent="1">
          <mxGeometry x="265" y="140" width="230" height="90" as="geometry" />
        </mxCell>
        <mxCell id="_BqXV4BA8Faw6ntWkrdX-11" value="Sistema de irrigação" style="rounded=1;whiteSpace=wrap;html=1;fillColor=#e51400;fontColor=#ffffff;strokeColor=#B20000;" vertex="1" parent="1">
          <mxGeometry x="240" y="20" width="120" height="60" as="geometry" />
        </mxCell>
        <mxCell id="_BqXV4BA8Faw6ntWkrdX-12" value="Relé/ Válula solenoide" style="rounded=1;whiteSpace=wrap;html=1;fillColor=#e51400;fontColor=#ffffff;strokeColor=#B20000;" vertex="1" parent="1">
          <mxGeometry x="414" y="20" width="120" height="60" as="geometry" />
        </mxCell>
        <mxCell id="_BqXV4BA8Faw6ntWkrdX-13" style="edgeStyle=orthogonalEdgeStyle;rounded=0;orthogonalLoop=1;jettySize=auto;html=1;exitX=0.5;exitY=0.925;exitDx=0;exitDy=0;exitPerimeter=0;" edge="1" parent="1" source="_BqXV4BA8Faw6ntWkrdX-14" target="_BqXV4BA8Faw6ntWkrdX-16">
          <mxGeometry relative="1" as="geometry">
            <mxPoint x="620" y="200" as="sourcePoint" />
          </mxGeometry>
        </mxCell>
        <mxCell id="_BqXV4BA8Faw6ntWkrdX-14" value="LoRa/ Wi-Fi &lt;br&gt;ou BLuetooth" style="ellipse;shape=cloud;whiteSpace=wrap;html=1;fillColor=#0050ef;fontColor=#ffffff;strokeColor=#001DBC;" vertex="1" parent="1">
          <mxGeometry x="610" y="50" width="166" height="120" as="geometry" />
        </mxCell>
        <mxCell id="_BqXV4BA8Faw6ntWkrdX-15" style="edgeStyle=orthogonalEdgeStyle;rounded=0;orthogonalLoop=1;jettySize=auto;html=1;" edge="1" parent="1" source="_BqXV4BA8Faw6ntWkrdX-16" target="_BqXV4BA8Faw6ntWkrdX-18">
          <mxGeometry relative="1" as="geometry" />
        </mxCell>
        <mxCell id="_BqXV4BA8Faw6ntWkrdX-16" value="Enviar para o dashboard&lt;div&gt;web / app&lt;/div&gt;" style="shape=parallelogram;perimeter=parallelogramPerimeter;whiteSpace=wrap;html=1;fixedSize=1;fillColor=light-dark(#A0522D,#C8C800);fontColor=#ffffff;strokeColor=#6D1F00;" vertex="1" parent="1">
          <mxGeometry x="604" y="250" width="178" height="80" as="geometry" />
        </mxCell>
        <mxCell id="_BqXV4BA8Faw6ntWkrdX-17" style="edgeStyle=orthogonalEdgeStyle;rounded=0;orthogonalLoop=1;jettySize=auto;html=1;entryX=1;entryY=0.5;entryDx=0;entryDy=0;" edge="1" parent="1" source="_BqXV4BA8Faw6ntWkrdX-18" target="_BqXV4BA8Faw6ntWkrdX-20">
          <mxGeometry relative="1" as="geometry" />
        </mxCell>
        <mxCell id="_BqXV4BA8Faw6ntWkrdX-18" value="Usuário" style="ellipse;whiteSpace=wrap;html=1;fillColor=#d80073;fontColor=#ffffff;strokeColor=#A50040;" vertex="1" parent="1">
          <mxGeometry x="633" y="430" width="120" height="80" as="geometry" />
        </mxCell>
        <mxCell id="_BqXV4BA8Faw6ntWkrdX-19" style="edgeStyle=orthogonalEdgeStyle;rounded=0;orthogonalLoop=1;jettySize=auto;html=1;entryX=0.5;entryY=1;entryDx=0;entryDy=0;" edge="1" parent="1" source="_BqXV4BA8Faw6ntWkrdX-20" target="_BqXV4BA8Faw6ntWkrdX-10">
          <mxGeometry relative="1" as="geometry" />
        </mxCell>
        <mxCell id="_BqXV4BA8Faw6ntWkrdX-20" value="Iniciar&amp;nbsp;&lt;div&gt;monitoramento&lt;/div&gt;" style="ellipse;whiteSpace=wrap;html=1;fillColor=#d80073;fontColor=#ffffff;strokeColor=#A50040;" vertex="1" parent="1">
          <mxGeometry x="320" y="430" width="120" height="80" as="geometry" />
        </mxCell>
        <mxCell id="_BqXV4BA8Faw6ntWkrdX-21" style="edgeStyle=orthogonalEdgeStyle;rounded=0;orthogonalLoop=1;jettySize=auto;html=1;entryX=0.004;entryY=0.867;entryDx=0;entryDy=0;entryPerimeter=0;" edge="1" parent="1" source="_BqXV4BA8Faw6ntWkrdX-8" target="_BqXV4BA8Faw6ntWkrdX-10">
          <mxGeometry relative="1" as="geometry">
            <Array as="points">
              <mxPoint x="210" y="310" />
              <mxPoint x="210" y="218" />
            </Array>
          </mxGeometry>
        </mxCell>
        <mxCell id="_BqXV4BA8Faw6ntWkrdX-22" style="edgeStyle=orthogonalEdgeStyle;rounded=0;orthogonalLoop=1;jettySize=auto;html=1;entryX=0.383;entryY=1;entryDx=0;entryDy=0;entryPerimeter=0;" edge="1" parent="1" source="_BqXV4BA8Faw6ntWkrdX-10" target="_BqXV4BA8Faw6ntWkrdX-12">
          <mxGeometry relative="1" as="geometry" />
        </mxCell>
        <mxCell id="_BqXV4BA8Faw6ntWkrdX-23" style="edgeStyle=orthogonalEdgeStyle;rounded=0;orthogonalLoop=1;jettySize=auto;html=1;entryX=0.16;entryY=0.55;entryDx=0;entryDy=0;entryPerimeter=0;" edge="1" parent="1" source="_BqXV4BA8Faw6ntWkrdX-10" target="_BqXV4BA8Faw6ntWkrdX-14">
          <mxGeometry relative="1" as="geometry" />
        </mxCell>
        <mxCell id="_BqXV4BA8Faw6ntWkrdX-24" value="Leitura dos dados" style="text;html=1;align=center;verticalAlign=middle;resizable=0;points=[];autosize=1;strokeColor=none;fillColor=none;" vertex="1" parent="1">
          <mxGeometry x="150" y="180" width="120" height="30" as="geometry" />
        </mxCell>
        <mxCell id="_BqXV4BA8Faw6ntWkrdX-25" value="Comando de acionamento" style="text;html=1;align=center;verticalAlign=middle;resizable=0;points=[];autosize=1;strokeColor=none;fillColor=none;" vertex="1" parent="1">
          <mxGeometry x="300" y="80" width="160" height="30" as="geometry" />
        </mxCell>
        <mxCell id="_BqXV4BA8Faw6ntWkrdX-26" value="Transmissão de dados" style="text;html=1;align=center;verticalAlign=middle;resizable=0;points=[];autosize=1;strokeColor=none;fillColor=none;" vertex="1" parent="1">
          <mxGeometry x="490" y="180" width="140" height="30" as="geometry" />
        </mxCell>
        <mxCell id="_BqXV4BA8Faw6ntWkrdX-27" value="Envio de dados" style="text;html=1;align=center;verticalAlign=middle;resizable=0;points=[];autosize=1;strokeColor=none;fillColor=none;" vertex="1" parent="1">
          <mxGeometry x="690" y="200" width="110" height="30" as="geometry" />
        </mxCell>
        <mxCell id="_BqXV4BA8Faw6ntWkrdX-28" value="Comando de início" style="text;whiteSpace=wrap;html=1;" vertex="1" parent="1">
          <mxGeometry x="480" y="440" width="130" height="40" as="geometry" />
        </mxCell>
        <mxCell id="_BqXV4BA8Faw6ntWkrdX-29" value="Sinal de ativação" style="text;whiteSpace=wrap;html=1;" vertex="1" parent="1">
          <mxGeometry x="390" y="330" width="120" height="40" as="geometry" />
        </mxCell>
        <mxCell id="_BqXV4BA8Faw6ntWkrdX-30" value="&lt;span style=&quot;text-align: left; text-wrap-mode: wrap;&quot;&gt;Visualização dos dados&lt;/span&gt;" style="text;html=1;align=center;verticalAlign=middle;resizable=0;points=[];autosize=1;strokeColor=none;fillColor=none;" vertex="1" parent="1">
          <mxGeometry x="665" y="370" width="150" height="30" as="geometry" />
        </mxCell>
        <mxCell id="_BqXV4BA8Faw6ntWkrdX-31" value="&lt;font style=&quot;color: light-dark(rgb(0, 0, 0), rgb(255, 255, 255));&quot;&gt;Sensor pH&lt;/font&gt;" style="rounded=1;whiteSpace=wrap;html=1;fillColor=light-dark(#008A00,#113411);fontColor=#ffffff;strokeColor=#005700;" vertex="1" parent="1">
          <mxGeometry x="30" y="360" width="120" height="60" as="geometry" />
        </mxCell>
        <mxCell id="_BqXV4BA8Faw6ntWkrdX-32" style="edgeStyle=orthogonalEdgeStyle;rounded=0;orthogonalLoop=1;jettySize=auto;html=1;entryX=0.104;entryY=1.033;entryDx=0;entryDy=0;entryPerimeter=0;dashed=1;" edge="1" parent="1" source="_BqXV4BA8Faw6ntWkrdX-31" target="_BqXV4BA8Faw6ntWkrdX-10">
          <mxGeometry relative="1" as="geometry" />
        </mxCell>
        <mxCell id="_BqXV4BA8Faw6ntWkrdX-33" value="&lt;font style=&quot;color: light-dark(rgb(0, 0, 0), rgb(255, 255, 255));&quot;&gt;Drone para análise visual das plantas via IA&lt;/font&gt;" style="rounded=1;whiteSpace=wrap;html=1;fillColor=light-dark(#008A00,#113411);fontColor=#ffffff;strokeColor=#005700;" vertex="1" parent="1">
          <mxGeometry x="30" y="440" width="120" height="60" as="geometry" />
        </mxCell>
        <mxCell id="_BqXV4BA8Faw6ntWkrdX-34" style="edgeStyle=orthogonalEdgeStyle;rounded=0;orthogonalLoop=1;jettySize=auto;html=1;entryX=0.174;entryY=1.022;entryDx=0;entryDy=0;entryPerimeter=0;dashed=1;" edge="1" parent="1" source="_BqXV4BA8Faw6ntWkrdX-33" target="_BqXV4BA8Faw6ntWkrdX-10">
          <mxGeometry relative="1" as="geometry" />
        </mxCell>
        <mxCell id="_BqXV4BA8Faw6ntWkrdX-35" value="Planejamentos futuros&lt;br&gt;para o projeto&lt;div&gt;&lt;br&gt;&lt;/div&gt;" style="text;html=1;align=center;verticalAlign=middle;resizable=0;points=[];autosize=1;strokeColor=none;fillColor=none;" vertex="1" parent="1">
          <mxGeometry x="160" y="410" width="140" height="60" as="geometry" />
        </mxCell>
        <mxCell id="_BqXV4BA8Faw6ntWkrdX-36" value="Legenda" style="swimlane;whiteSpace=wrap;html=1;" vertex="1" parent="1">
          <mxGeometry x="20" y="550" width="550" height="320" as="geometry" />
        </mxCell>
        <mxCell id="_BqXV4BA8Faw6ntWkrdX-37" value="🟩 &lt;strong data-start=&quot;261&quot; data-end=&quot;289&quot;&gt;Sensores (Implementados):&amp;nbsp;&lt;/strong&gt;Leitura ativa no sistema atual&amp;nbsp;&lt;div&gt;&lt;br&gt;&lt;div&gt;🟩&amp;nbsp;&lt;strong data-start=&quot;261&quot; data-end=&quot;289&quot;&gt;Sensores (Que serão implementados):&amp;nbsp;&lt;/strong&gt;&lt;strong style=&quot;background-color: transparent; color: light-dark(rgb(0, 0, 0), rgb(255, 255, 255));&quot; data-start=&quot;261&quot; data-end=&quot;289&quot;&gt;Funcionalidades previstas para próximas fases&lt;/strong&gt;&lt;/div&gt;&lt;/div&gt;&lt;div&gt;&lt;strong data-start=&quot;261&quot; data-end=&quot;289&quot;&gt;&lt;br&gt;&lt;/strong&gt;&lt;/div&gt;&lt;div&gt;&lt;strong data-start=&quot;261&quot; data-end=&quot;289&quot;&gt;&lt;strong data-end=&quot;496&quot; data-start=&quot;476&quot;&gt;🟧 Microcontrolador:&amp;nbsp;&lt;/strong&gt;Unidade central que processa os dados e aciona os atuadores (ESP32/Arduino Uno ou Nano)&lt;/strong&gt;&lt;/div&gt;&lt;div&gt;&lt;strong data-start=&quot;261&quot; data-end=&quot;289&quot;&gt;&lt;br&gt;&lt;/strong&gt;&lt;/div&gt;&lt;div&gt;&lt;strong data-start=&quot;261&quot; data-end=&quot;289&quot;&gt;&lt;strong data-end=&quot;719&quot; data-start=&quot;706&quot;&gt;&lt;strong style=&quot;background-color: transparent; color: light-dark(rgb(0, 0, 0), rgb(255, 255, 255));&quot; data-start=&quot;261&quot; data-end=&quot;289&quot;&gt;&lt;strong data-end=&quot;496&quot; data-start=&quot;476&quot;&gt;🟧&amp;nbsp;&lt;/strong&gt;&lt;/strong&gt;Atuadores:&amp;nbsp;&lt;/strong&gt;Equipamentos físicos que executam comandos&lt;/strong&gt;&lt;/div&gt;&lt;div&gt;&lt;strong data-start=&quot;261&quot; data-end=&quot;289&quot;&gt;&lt;br&gt;&lt;/strong&gt;&lt;/div&gt;🟦&amp;nbsp;&lt;strong data-end=&quot;872&quot; data-start=&quot;830&quot;&gt;Comunicação:&amp;nbsp;&lt;/strong&gt;&lt;strong style=&quot;background-color: transparent; color: light-dark(rgb(0, 0, 0), rgb(255, 255, 255));&quot; data-start=&quot;261&quot; data-end=&quot;289&quot;&gt;&lt;span style=&quot;background-color: transparent; color: light-dark(rgb(0, 0, 0), rgb(255, 255, 255)); font-weight: normal;&quot;&gt;Canal de transmissão dos dados entre o microcontrolador e o dashboard&lt;/span&gt;&amp;nbsp;&lt;/strong&gt;&lt;div&gt;&lt;strong data-start=&quot;261&quot; data-end=&quot;289&quot;&gt;&lt;br&gt;&lt;/strong&gt;&lt;/div&gt;&lt;div&gt;&lt;strong data-start=&quot;261&quot; data-end=&quot;289&quot;&gt;🟨 &lt;strong data-end=&quot;408&quot; data-start=&quot;387&quot;&gt;Dashboard Web/App:&amp;nbsp;&lt;/strong&gt;Interface de visualização e controle acessada pelo usuário&lt;/strong&gt;&lt;/div&gt;&lt;div&gt;&lt;strong data-start=&quot;261&quot; data-end=&quot;289&quot;&gt;&lt;br&gt;&lt;/strong&gt;&lt;/div&gt;&lt;div&gt;&lt;strong data-start=&quot;261&quot; data-end=&quot;289&quot;&gt;&lt;strong data-end=&quot;630&quot; data-start=&quot;593&quot;&gt;🟪 Usuário / Início de Monitoramento:&amp;nbsp;&lt;/strong&gt;Atores responsáveis por iniciar o sistema e interagir com os dados&lt;/strong&gt;&lt;/div&gt;&lt;div&gt;&lt;strong data-start=&quot;261&quot; data-end=&quot;289&quot;&gt;&lt;br&gt;&lt;/strong&gt;&lt;/div&gt;&lt;div&gt;&lt;strong data-start=&quot;261&quot; data-end=&quot;289&quot;&gt;&lt;strong data-end=&quot;1100&quot; data-start=&quot;1091&quot;&gt;Setas&lt;/strong&gt;&lt;br data-end=&quot;1103&quot; data-start=&quot;1100&quot;&gt;&lt;strong data-end=&quot;1123&quot; data-start=&quot;1105&quot;&gt;Linha contínua&lt;/strong&gt;: fluxo ativo atual&lt;br data-end=&quot;1145&quot; data-start=&quot;1142&quot;&gt;&lt;strong data-end=&quot;1166&quot; data-start=&quot;1147&quot;&gt;Linha tracejada&lt;/strong&gt;: fluxo planejado para o futuro&lt;/strong&gt;&lt;/div&gt;" style="text;whiteSpace=wrap;html=1;" vertex="1" parent="_BqXV4BA8Faw6ntWkrdX-36">
          <mxGeometry x="10" y="30" width="540" height="70" as="geometry" />
        </mxCell>
      </root>
    </mxGraphModel>
  </diagram>
</mxfile>
